<svg xmlns="http://www.w3.org/2000/svg" viewBox="0 0 920 500" role="img" aria-labelledby="title desc">
  <title id="title">10个固定样地两年开花个体数的配对变化</title>
  <desc id="desc">去年平均每个样地23株，今年平均17株。10条连线表示同一样地两年的变化，其中9个样地下降，1个样地增加。</desc>
  <rect width="920" height="500" fill="#fcfdfc"/>
  <g font-family="Microsoft YaHei, PingFang SC, sans-serif" fill="#243129">
    <text x="80" y="42" font-size="22" font-weight="700">固定样地中的开花个体变化</text>
    <text x="80" y="68" font-size="14" fill="#59665e">每条线连接同一个样地；数据用于教学示意</text>
    <line x1="260" y1="80" x2="260" y2="430" stroke="#d6ddd8" stroke-width="2"/>
    <line x1="660" y1="80" x2="660" y2="430" stroke="#d6ddd8" stroke-width="2"/>
    <text x="260" y="466" font-size="18" text-anchor="middle" fill="#4d8294" font-weight="700">去年</text>
    <text x="660" y="466" font-size="18" text-anchor="middle" fill="#c86652" font-weight="700">今年</text>
    <g fill="#59665e" font-size="13" text-anchor="end">
      <text x="228" y="434">5</text>
      <text x="228" y="364">10</text>
      <text x="228" y="294">15</text>
      <text x="228" y="224">20</text>
      <text x="228" y="154">25</text>
      <text x="228" y="84">30</text>
    </g>
    <g stroke="#edf0ed" stroke-width="1">
      <line x1="235" y1="430" x2="685" y2="430"/>
      <line x1="235" y1="360" x2="685" y2="360"/>
      <line x1="235" y1="290" x2="685" y2="290"/>
      <line x1="235" y1="220" x2="685" y2="220"/>
      <line x1="235" y1="150" x2="685" y2="150"/>
      <line x1="235" y1="80" x2="685" y2="80"/>
    </g>
    <g stroke="#91a097" stroke-width="2" stroke-opacity="0.72">
      <line x1="246" y1="248" x2="646" y2="276"/>
      <line x1="249" y1="220" x2="649" y2="192"/>
      <line x1="252" y1="206" x2="652" y2="262"/>
      <line x1="255" y1="192" x2="655" y2="248"/>
      <line x1="258" y1="178" x2="658" y2="220"/>
      <line x1="261" y1="178" x2="661" y2="304"/>
      <line x1="264" y1="164" x2="664" y2="234"/>
      <line x1="267" y1="150" x2="667" y2="290"/>
      <line x1="270" y1="122" x2="670" y2="206"/>
      <line x1="273" y1="122" x2="673" y2="388"/>
    </g>
    <g fill="#4d8294" stroke="#ffffff" stroke-width="2">
      <circle cx="246" cy="248" r="6"/><circle cx="249" cy="220" r="6"/>
      <circle cx="252" cy="206" r="6"/><circle cx="255" cy="192" r="6"/>
      <circle cx="258" cy="178" r="6"/><circle cx="261" cy="178" r="6"/>
      <circle cx="264" cy="164" r="6"/><circle cx="267" cy="150" r="6"/>
      <circle cx="270" cy="122" r="6"/><circle cx="273" cy="122" r="6"/>
    </g>
    <g fill="#c86652" stroke="#ffffff" stroke-width="2">
      <circle cx="646" cy="276" r="6"/><circle cx="649" cy="192" r="6"/>
      <circle cx="652" cy="262" r="6"/><circle cx="655" cy="248" r="6"/>
      <circle cx="658" cy="220" r="6"/><circle cx="661" cy="304" r="6"/>
      <circle cx="664" cy="234" r="6"/><circle cx="667" cy="290" r="6"/>
      <circle cx="670" cy="206" r="6"/><circle cx="673" cy="388" r="6"/>
    </g>
    <line x1="228" y1="178" x2="292" y2="178" stroke="#4d8294" stroke-width="4"/>
    <text x="300" y="183" font-size="15" fill="#4d8294" font-weight="700">平均 23 株</text>
    <line x1="628" y1="262" x2="692" y2="262" stroke="#c86652" stroke-width="4"/>
    <text x="700" y="267" font-size="15" fill="#c86652" font-weight="700">平均 17 株</text>
    <text x="80" y="278" font-size="14" fill="#59665e" transform="rotate(-90 80 278)">开花个体数（株/样地）</text>
  </g>
</svg>
